<?xml version="1.0" encoding="utf-8"?>
<!-- Generator: Adobe Illustrator 18.1.1, SVG Export Plug-In . SVG Version: 6.00 Build 0)  -->
<svg version="1.1" id="Layer_1" xmlns="http://www.w3.org/2000/svg" xmlns:xlink="http://www.w3.org/1999/xlink" x="0px" y="0px"
	 viewBox="0 0 200 200" enable-background="new 0 0 200 200" xml:space="preserve">
<path d="M131,44.4c7.6,0,13.8,6.2,13.8,13.8v83.7c0,7.6-6.2,13.8-13.8,13.8H63.6c-7.6,0-13.8-6.2-13.8-13.8V58.1
	c0-7.6,6.2-13.8,13.8-13.8L131,44.4"/>
<g>
	<path fill="none" stroke="#EEEEEE" stroke-miterlimit="10" d="M131,44.3c7.6,0,13.8,6.2,13.8,13.8v83.7c0,7.6-6.2,13.8-13.8,13.8
		H63.6c-7.6,0-13.8-6.2-13.8-13.8V58.1c0-7.6,6.2-13.8,13.8-13.8L131,44.3 M131,38.5H63.6c-10.8,0-19.6,8.8-19.6,19.6v83.7
		c0,10.8,8.8,19.6,19.6,19.6H131c10.8,0,19.6-8.8,19.6-19.6V58.1C150.5,47.2,141.8,38.5,131,38.5L131,38.5z"/>
</g>
<path fill="#FFFFFF" stroke="#EEEEEE" stroke-miterlimit="10" d="M152.6,65.8c1.4,0,2.6,1.2,2.6,2.6c0,0,0.5,2.8,0.5,8.9
	c0,6.2-0.5,8.9-0.5,8.9c0,1.4-1.2,2.6-2.6,2.6c-0.1,0-0.3,0-0.4,0h-0.1h-1.8c0,0-4-0.3-4-11.1s4-12,4-12h1.8L152.6,65.8L152.6,65.8z
	"/>
<path fill="none" stroke="#EEEEEE" stroke-miterlimit="10" d="M150.5,102c0.3-0.6,0.7-0.8,0.7-0.8c0.7,0.1,1.3,0.8,1.3,1.5v31.8
	c0,0.8-0.6,1.4-1.3,1.5c-0.2-0.3-0.5-0.6-0.7-1V102z"/>
<g>
	<path fill="#EFEFEF" stroke="#EEEEEE" stroke-miterlimit="10" d="M130.8,38.5c2.3,0,4.6,0.4,6.6,1.2c-2.6-2.1-3.2-4.2-4.4-8.2
		c-1-3.5-1.4-5.9-1.7-9.6s-0.8-12-1.9-14.2C128.1,5,127,4,124.6,3.3c-2.3-0.6-15.1-2.7-26.6-2.8l0,0c-0.2,0-0.4,0-0.6,0
		s-0.4,0-0.6,0l0,0C85.2,0.6,72.5,2.6,70.1,3.3c-2.4,0.6-3.5,1.7-4.9,4.3c-1.1,2.2-1.6,10.5-1.9,14.2s-0.7,6.1-1.7,9.6
		c-1.1,4-1.7,6.1-4.1,8c1.9-0.6,3.9-1,6-1L130.8,38.5L130.8,38.5z"/>
</g>
<g>
	<path fill="#EFEFEF" stroke="#EEEEEE" stroke-miterlimit="10" d="M64.1,161.4c-2.3,0-4.6-0.4-6.6-1.2c2.6,2.1,3.2,4.2,4.4,8.2
		c1,3.5,1.4,5.9,1.7,9.6c0.3,3.7,0.8,12,1.9,14.2c1.4,2.7,2.5,3.7,4.9,4.3c2.3,0.6,15.1,2.7,26.6,2.8l0,0c0.2,0,0.4,0,0.6,0
		s0.4,0,0.6,0l0,0c11.5-0.1,24.3-2.2,26.6-2.8c2.4-0.6,3.5-1.7,4.9-4.3c1.1-2.2,1.6-10.5,1.9-14.2s0.7-6.1,1.7-9.6
		c1.1-4,1.7-6.1,4.1-8c-1.9,0.6-3.9,1-6,1C131.3,161.4,64.1,161.4,64.1,161.4z"/>
</g>
</svg>
