<?xml version="1.0" encoding="utf-8"?>
<!-- Generator: Adobe Illustrator 18.1.1, SVG Export Plug-In . SVG Version: 6.00 Build 0)  -->
<svg version="1.1" id="Layer_1" xmlns="http://www.w3.org/2000/svg" xmlns:xlink="http://www.w3.org/1999/xlink" x="0px" y="0px"
	 viewBox="51 -1 97.8 181.8" enable-background="new 51 -1 97.8 181.8" xml:space="preserve">
<path fill="none" stroke="#EEEEEE" stroke-miterlimit="10" d="M68.1,1.1h64.6c8.3,0,15,6.7,15,15v148.5c0,8.3-6.7,15-15,15H68.1
	c-8.3,0-15-6.7-15-15V16.1C53.1,7.8,59.8,1.1,68.1,1.1z"/>
<path fill="none" stroke="#EEEEEE" stroke-miterlimit="10" d="M52.7,63.8H53v6.9h-0.4c-0.4,0-0.6-0.3-0.6-0.6v-5.6
	C52.1,64.1,52.4,63.8,52.7,63.8z"/>
<path fill="none" stroke="#EEEEEE" stroke-miterlimit="10" d="M52.7,47.3H53v6.9h-0.4c-0.4,0-0.6-0.3-0.6-0.6V48
	C52.1,47.6,52.4,47.3,52.7,47.3z"/>
<path fill="none" stroke="#EEEEEE" stroke-miterlimit="10" d="M52.7,28.2H53v9.3h-0.4c-0.4,0-0.6-0.3-0.6-0.6v-8.1
	C52.1,28.5,52.4,28.2,52.7,28.2z"/>
<path fill="none" stroke="#EEEEEE" stroke-miterlimit="10" d="M116.8,0h14.4c0.4,0,0.6,0.3,0.6,0.6v0.5h-15.6V0.6
	C116.1,0.3,116.4,0,116.8,0z"/>
<path fill="none" stroke="#EEEEEE" stroke-miterlimit="10" d="M93.7,16.5h13.5c1,0,1.9,0.8,1.9,1.9c0,1-0.8,1.9-1.9,1.9H93.7
	c-1,0-1.9-0.8-1.9-1.9S92.6,16.5,93.7,16.5z"/>
<path fill="none" stroke="#EEEEEE" stroke-miterlimit="10" d="M100.4,9c1,0,1.9,0.8,1.9,1.9s-0.8,1.9-1.9,1.9c-1,0-1.9-0.8-1.9-1.9
	S99.4,9,100.4,9z"/>
<path fill="none" stroke="#EEEEEE" stroke-miterlimit="10" d="M100.4,172.3c4,0,7.2-3.2,7.2-7.2c0-4-3.2-7.2-7.2-7.2
	c-4,0-7.2,3.2-7.2,7.2C93.2,169,96.4,172.3,100.4,172.3L100.4,172.3z M100.4,173.5c4.6,0,8.4-3.8,8.4-8.4s-3.8-8.4-8.4-8.4
	s-8.4,3.8-8.4,8.4C92,169.7,95.8,173.5,100.4,173.5L100.4,173.5z"/>
<path fill="none" stroke="#EEEEEE" stroke-miterlimit="10" d="M60.6,28.6h79.5c0.7,0,1.3,0.5,1.3,1.3v121.5c0,0.7-0.5,1.3-1.3,1.3
	H60.6c-0.7,0-1.3-0.5-1.3-1.3V29.8C59.3,29.1,59.9,28.6,60.6,28.6z"/>
</svg>
