<?xml version="1.0" encoding="utf-8"?>
<!-- Generator: Adobe Illustrator 18.1.1, SVG Export Plug-In . SVG Version: 6.00 Build 0)  -->
<svg version="1.1" id="Layer_1" xmlns="http://www.w3.org/2000/svg" xmlns:xlink="http://www.w3.org/1999/xlink" x="0px" y="0px"
	 viewBox="20.4 -101 179.1 367" enable-background="new 20.4 -101 179.1 367" xml:space="preserve">
<path fill="none" stroke="#EEEEEE" stroke-miterlimit="10" d="M82-74.5c1.7,0,3-1.3,3-3s-1.3-3-3-3c-1.7,0-3,1.3-3,3
	S80.3-74.5,82-74.5L82-74.5z M82-74.5"/>
<path fill-rule="evenodd" clip-rule="evenodd" fill="none" stroke="#EEEEEE" stroke-miterlimit="10" d="M97-79.5c-1.1,0-2,0.9-2,2
	l0,0c0,1.1,0.9,2,2,2h26c1.1,0,2-0.9,2-2l0,0c0-1.1-0.9-2-2-2H97L97-79.5z M97-79.5"/>
<path fill="none" stroke="#EEEEEE" stroke-width="2" stroke-miterlimit="10" d="M97-79.5c-1.1,0-2,0.9-2,2l0,0c0,1.1,0.9,2,2,2h26
	c1.1,0,2-0.9,2-2l0,0c0-1.1-0.9-2-2-2H97L97-79.5z M97-79.5"/>
<path fill="none" stroke="#EEEEEE" stroke-miterlimit="10" d="M199,4.3v235.2c0,14.4-11.6,26-26,26H47c-14.4,0-26-11.6-26-26v-314
	c0-14.4,11.6-26,26-26h126c14.4,0,26,11.6,26,26v52.2c-0.2,0.2-0.4,0.5-0.4,0.8v25C198.6,3.8,198.8,4.1,199,4.3L199,4.3z M199,4.3
	 M199,4.3v235.2c0,14.4-11.6,26-26,26H47c-14.4,0-26-11.6-26-26v-314c0-14.4,11.6-26,26-26h126c14.4,0,26,11.6,26,26v52.2
	c-0.2,0.2-0.4,0.5-0.4,0.8v25C198.6,3.8,198.8,4.1,199,4.3L199,4.3z M199,4.3"/>
<path fill-rule="evenodd" clip-rule="evenodd" fill="none" stroke="#EEEEEE" stroke-miterlimit="10" d="M48-96.5
	c-12.2,0-22,9.9-22,22v313c0,12.1,9.8,22,22,22h125c12.2,0,22-9.9,22-22v-313c0-12.1-9.8-22-22-22H48L48-96.5z M48-96.5"/>
<path fill="none" stroke="#EEEEEE" stroke-width="2" stroke-miterlimit="10" d="M48-96.5c-12.2,0-22,9.9-22,22v313
	c0,12.1,9.8,22,22,22h125c12.2,0,22-9.9,22-22v-313c0-12.1-9.8-22-22-22H48L48-96.5z M48-96.5"/>
<path fill-rule="evenodd" clip-rule="evenodd" fill="none" stroke="#EEEEEE" stroke-miterlimit="10" d="M48-96.5
	c-12.2,0-22,9.9-22,22v313c0,12.1,9.8,22,22,22h125c12.2,0,22-9.9,22-22v-313c0-12.1-9.8-22-22-22H48L48-96.5z M48-96.5"/>
<path fill="none" stroke="#EEEEEE" stroke-width="2" stroke-miterlimit="10" d="M48-96.5c-12.2,0-22,9.9-22,22v313
	c0,12.1,9.8,22,22,22h125c12.2,0,22-9.9,22-22v-313c0-12.1-9.8-22-22-22H48L48-96.5z M48-96.5"/>
<path fill="none" stroke="#EEEEEE" stroke-linecap="square" stroke-miterlimit="10" d="M20-22V5.5 M20.5-54.1v14.1 M20,10.5v27.9"/>
<path fill="none" stroke="#EEEEEE" stroke-miterlimit="10" d="M110-87.5c1.1,0,2-0.9,2-2c0-1.1-0.9-2-2-2c-1.1,0-2,0.9-2,2
	C108-88.4,108.9-87.5,110-87.5L110-87.5z M110-87.5"/>
<path fill-rule="evenodd" clip-rule="evenodd" fill="none" stroke="#EEEEEE" stroke-miterlimit="10" d="M34-57.5c-1.1,0-2,0.9-2,2
	v274c0,1.1,0.9,2,2,2h152c1.1,0,2-0.9,2-2v-274c0-1.1-0.9-2-2-2H34L34-57.5z M34-57.5"/>
<path fill="none" stroke="#EEEEEE" stroke-miterlimit="10" d="M34-57.5c-1.1,0-2,0.9-2,2v274c0,1.1,0.9,2,2,2h152c1.1,0,2-0.9,2-2
	v-274c0-1.1-0.9-2-2-2H34L34-57.5z M34-57.5"/>
<path fill="none" stroke="#EEEEEE" stroke-miterlimit="10" d="M110,253.5c6.6,0,12-5.4,12-12c0-6.6-5.4-12-12-12s-12,5.4-12,12
	C98,248.1,103.4,253.5,110,253.5L110,253.5z M110,253.5 M110,255.5c7.7,0,14-6.3,14-14c0-7.7-6.3-14-14-14c-7.7,0-14,6.3-14,14
	C96,249.2,102.3,255.5,110,255.5L110,255.5z M110,255.5"/>
</svg>
