<?xml version="1.0" encoding="utf-8"?>
<!-- Generator: Adobe Illustrator 18.1.1, SVG Export Plug-In . SVG Version: 6.00 Build 0)  -->
<svg version="1.1" id="Layer_1" xmlns="http://www.w3.org/2000/svg" xmlns:xlink="http://www.w3.org/1999/xlink" x="0px" y="0px"
	 viewBox="0 0 208.2 422.5" enable-background="new 0 0 208.2 422.5" xml:space="preserve">
<path fill="none" stroke="#EEEEEE" stroke-miterlimit="10" d="M76.2,30.2c1.7,0,3-1.3,3-3s-1.3-3-3-3c-1.7,0-3,1.3-3,3
	S74.5,30.2,76.2,30.2L76.2,30.2z M76.2,30.2"/>
<path fill-rule="evenodd" clip-rule="evenodd" fill="none" stroke="#EEEEEE" stroke-miterlimit="10" d="M92,25.2c-1.1,0-2,0.9-2,2
	l0,0c0,1.1,0.9,2,2,2h24c1.1,0,2-0.9,2-2l0,0c0-1.1-0.9-2-2-2H92L92,25.2z M92,25.2"/>
<path fill="none" stroke="#EEEEEE" stroke-width="2" stroke-miterlimit="10" d="M92,25.2c-1.1,0-2,0.9-2,2l0,0c0,1.1,0.9,2,2,2h24
	c1.1,0,2-0.9,2-2l0,0c0-1.1-0.9-2-2-2H92L92,25.2z M92,25.2"/>
<path fill-rule="evenodd" clip-rule="evenodd" fill="none" stroke="#EEEEEE" stroke-miterlimit="10" d="M207,109.1v286.2
	c0,14.4-11.6,26-26,26H27c-14.4,0-26-11.6-26-26v-368c0-14.4,11.6-26,26-26h154c14.4,0,26,11.6,26,26v55.2c-0.2,0.2-0.4,0.5-0.4,0.8
	v25C206.6,108.6,206.8,108.9,207,109.1L207,109.1z M207,109.1"/>
<path fill="none" stroke="#EEEEEE" stroke-width="2" stroke-miterlimit="10" d="M207,109.1v286.2c0,14.4-11.6,26-26,26H27
	c-14.4,0-26-11.6-26-26v-368c0-14.4,11.6-26,26-26h154c14.4,0,26,11.6,26,26v55.2c-0.2,0.2-0.4,0.5-0.4,0.8v25
	C206.6,108.6,206.8,108.9,207,109.1L207,109.1z M207,109.1"/>
<g>
	<path fill="none" stroke="#EEEEEE" stroke-miterlimit="10" d="M27,6.2c-12.1,0-22,9.9-22,22v366c0,12.2,9.9,22,22,22h154
		c12.1,0,22-9.9,22-22v-366c0-12.2-9.9-22-22-22H27L27,6.2z M27,6.2"/>
	<path fill="none" stroke="#EEEEEE" stroke-linecap="square" stroke-miterlimit="10" d="M1,82.7l0,26 M0.5,50.8v16 M1,114.8l0,26"/>
</g>
<path fill="none" stroke="#EEEEEE" stroke-miterlimit="10" d="M104,17.2c1.1,0,2-0.9,2-2c0-1.1-0.9-2-2-2c-1.1,0-2,0.9-2,2
	C102,16.4,102.9,17.2,104,17.2L104,17.2z M104,17.2"/>
<path fill-rule="evenodd" clip-rule="evenodd" fill="none" stroke="#EEEEEE" stroke-miterlimit="10" d="M15,49.2c-1.1,0-2,0.9-2,2
	v320c0,1.1,0.9,2,2,2h178c1.1,0,2-0.9,2-2v-320c0-1.1-0.9-2-2-2H15L15,49.2z M15,49.2"/>
<path fill="none" stroke="#EEEEEE" stroke-width="2" stroke-miterlimit="10" d="M15,49.2c-1.1,0-2,0.9-2,2v320c0,1.1,0.9,2,2,2h178
	c1.1,0,2-0.9,2-2v-320c0-1.1-0.9-2-2-2H15L15,49.2z M15,49.2"/>
<path fill="none" stroke="#EEEEEE" stroke-miterlimit="10" d="M104,408.2c6.6,0,12-5.4,12-12c0-6.6-5.4-12-12-12s-12,5.4-12,12
	C92,402.9,97.4,408.2,104,408.2L104,408.2z M104,408.2 M104,410.2c7.7,0,14-6.3,14-14c0-7.7-6.3-14-14-14c-7.7,0-14,6.3-14,14
	C90,404,96.3,410.2,104,410.2L104,410.2z M104,410.2"/>
</svg>
