<?xml version="1.0" encoding="utf-8"?>
<!-- Generator: Adobe Illustrator 18.1.1, SVG Export Plug-In . SVG Version: 6.00 Build 0)  -->
<svg version="1.1" id="Layer_1" xmlns="http://www.w3.org/2000/svg" xmlns:xlink="http://www.w3.org/1999/xlink" x="0px" y="0px"
	 viewBox="0 0 159.3 332.4" enable-background="new 0 0 159.3 332.4" xml:space="preserve">
<path fill-rule="evenodd" clip-rule="evenodd" fill="none" stroke="#EEEEEE" stroke-miterlimit="10" d="M26.6,1.9h107.3
	c13.8,0,24.9,11.1,24.9,24.9v280.1c0,13.8-11.1,24.9-24.9,24.9H26.6c-13.8,0-24.9-11.1-24.9-24.9V26.8C1.7,13,12.8,1.9,26.6,1.9z"/>
<path fill-rule="evenodd" clip-rule="evenodd" fill="none" stroke="#EEEEEE" stroke-miterlimit="10" d="M1,106h0.6v11.4H1
	c-0.6,0-1-0.5-1-1v-9.3C0,106.5,0.5,106,1,106z"/>
<path fill-rule="evenodd" clip-rule="evenodd" fill="none" stroke="#EEEEEE" stroke-miterlimit="10" d="M1,78.6h0.6v11.4H1
	c-0.6,0-1-0.5-1-1v-9.3C0,79.1,0.5,78.6,1,78.6z"/>
<path fill-rule="evenodd" clip-rule="evenodd" fill="none" stroke="#EEEEEE" stroke-miterlimit="10" d="M1,46.9h0.6v15.5H1
	c-0.6,0-1-0.5-1-1V47.9C0,47.4,0.5,46.9,1,46.9z"/>
<path fill-rule="evenodd" clip-rule="evenodd" fill="none" stroke="#EEEEEE" stroke-miterlimit="10" d="M107.5,0h23.9
	c0.6,0,1,0.5,1,1v0.8h-25.9V1C106.4,0.5,106.9,0,107.5,0z"/>
<path fill-rule="evenodd" clip-rule="evenodd" fill="none" stroke="#EEEEEE" stroke-miterlimit="10" d="M69.1,27.4h22.4
	c1.7,0,3.1,1.4,3.1,3.1c0,1.7-1.4,3.1-3.1,3.1H69.1c-1.7,0-3.1-1.4-3.1-3.1C66,28.8,67.4,27.4,69.1,27.4z"/>
<path fill-rule="evenodd" clip-rule="evenodd" fill="none" stroke="#EEEEEE" stroke-miterlimit="10" d="M80.3,14.9
	c1.7,0,3.1,1.4,3.1,3.1c0,1.7-1.4,3.1-3.1,3.1c-1.7,0-3.1-1.4-3.1-3.1C77.2,16.3,78.6,14.9,80.3,14.9z"/>
<path fill="none" stroke="#EEEEEE" stroke-miterlimit="10" d="M80.3,319.6c6.6,0,12-5.4,12-12c0-6.6-5.4-12-12-12s-12,5.4-12,12
	C68.3,314.2,73.7,319.6,80.3,319.6L80.3,319.6z M80.3,319.6 M80.3,321.6c7.7,0,14-6.3,14-14c0-7.7-6.3-14-14-14c-7.7,0-14,6.3-14,14
	C66.3,315.3,72.6,321.6,80.3,321.6L80.3,321.6z M80.3,321.6"/>
<path fill-rule="evenodd" clip-rule="evenodd" fill="none" stroke="#EEEEEE" stroke-miterlimit="10" d="M14.1,47.5h132.2
	c1.1,0,2.1,0.9,2.1,2.1v235.1c0,1.1-0.9,2.1-2.1,2.1H14.1c-1.1,0-2.1-0.9-2.1-2.1V49.6C12,48.4,13,47.5,14.1,47.5z"/>
</svg>
